HIERARCHY
ROOT Hips
{
	OFFSET 0.000000 0.000000 0.000000
	CHANNELS 6 Xposition Yposition Zposition Zrotation Yrotation Xrotation 
	JOINT LHipJoint
	{
		OFFSET 0.000000 0.000000 0.000000
		CHANNELS 3 Zrotation Yrotation Xrotation
		JOINT LeftUpLeg
		{
			OFFSET 1.363060 -1.794630 0.839290
			CHANNELS 3 Zrotation Yrotation Xrotation
			JOINT LeftLeg
			{
				OFFSET 2.448110 -6.726130 0.000000
				CHANNELS 3 Zrotation Yrotation Xrotation
				JOINT LeftFoot
				{
					OFFSET 2.562200 -7.039590 0.000000
					CHANNELS 3 Zrotation Yrotation Xrotation
					JOINT LeftToeBase
					{
						OFFSET 0.157640 -0.433110 2.322550
						CHANNELS 3 Zrotation Yrotation Xrotation
						End Site
						{
							OFFSET 0.000000 0.000000 0.000000
						}
					}
				}
			}
		}
	}
	JOINT RHipJoint
	{
		OFFSET 0.000000 0.000000 0.000000
		CHANNELS 3 Zrotation Yrotation Xrotation
		JOINT RightUpLeg
		{
			OFFSET -1.305520 -1.794630 0.839290
			CHANNELS 3 Zrotation Yrotation Xrotation
			JOINT RightLeg
			{
				OFFSET -2.542530 -6.985550 0.000000
				CHANNELS 3 Zrotation Yrotation Xrotation
				JOINT RightFoot
				{
					OFFSET -2.568260 -7.056230 0.000000
					CHANNELS 3 Zrotation Yrotation Xrotation
					JOINT RightToeBase
					{
						OFFSET -0.164730 -0.452590 2.363150
						CHANNELS 3 Zrotation Yrotation Xrotation
						End Site
						{
							OFFSET 0.000000 0.000000 0.000000
						}
					}
				}
			}
		}
	}
	JOINT LowerBack
	{
		OFFSET 0.000000 0.000000 0.000000
		CHANNELS 3 Zrotation Yrotation Xrotation
		JOINT Spine
		{
			OFFSET 0.028270 2.035590 -0.193380
			CHANNELS 3 Zrotation Yrotation Xrotation
			JOINT Spine1
			{
				OFFSET 0.056720 2.048850 -0.042750
				CHANNELS 3 Zrotation Yrotation Xrotation
				JOINT Neck
				{
					OFFSET 0.000000 0.000000 0.000000
					CHANNELS 3 Zrotation Yrotation Xrotation
					JOINT Neck1
					{
						OFFSET -0.054170 1.746240 0.172020
						CHANNELS 3 Zrotation Yrotation Xrotation
						JOINT Head
						{
							OFFSET 0.104070 1.761360 -0.123970
							CHANNELS 3 Zrotation Yrotation Xrotation
							End Site
							{
								OFFSET 0.000000 0.000000 0.000000
							}
						}
					}
				}
				JOINT LeftShoulder
				{
					OFFSET 0.000000 0.000000 0.000000
					CHANNELS 3 Zrotation Yrotation Xrotation
					JOINT LeftArm
					{
						OFFSET 3.362410 1.200890 -0.311210
						CHANNELS 3 Zrotation Yrotation Xrotation
						JOINT LeftForeArm
						{
							OFFSET 4.983000 -0.000000 -0.000000
							CHANNELS 3 Zrotation Yrotation Xrotation
							JOINT LeftHand
							{
								OFFSET 3.483560 -0.000000 -0.000000
								CHANNELS 3 Zrotation Yrotation Xrotation
								JOINT LeftFingerBase
								{
									OFFSET 0.000000 0.000000 0.000000
									CHANNELS 3 Zrotation Yrotation Xrotation
									JOINT LeftHandIndex1
									{
										OFFSET 0.715260 -0.000000 -0.000000
										CHANNELS 3 Zrotation Yrotation Xrotation
										End Site
										{
											OFFSET 0.000000 0.000000 0.000000
										}
									}
								}
								JOINT LThumb
								{
									OFFSET 0.000000 0.000000 0.000000
									CHANNELS 3 Zrotation Yrotation Xrotation
									End Site
									{
										OFFSET 0.000000 0.000000 0.000000
									}
								}
							}
						}
					}
				}
				JOINT RightShoulder
				{
					OFFSET 0.000000 0.000000 0.000000
					CHANNELS 3 Zrotation Yrotation Xrotation
					JOINT RightArm
					{
						OFFSET -3.136600 1.374050 -0.404650
						CHANNELS 3 Zrotation Yrotation Xrotation
						JOINT RightForeArm
						{
							OFFSET -5.241900 -0.000000 -0.000000
							CHANNELS 3 Zrotation Yrotation Xrotation
							JOINT RightHand
							{
								OFFSET -3.444170 -0.000000 -0.000000
								CHANNELS 3 Zrotation Yrotation Xrotation
								JOINT RightFingerBase
								{
									OFFSET 0.000000 0.000000 0.000000
									CHANNELS 3 Zrotation Yrotation Xrotation
									JOINT RightHandIndex1
									{
										OFFSET -0.622530 -0.000000 -0.000000
										CHANNELS 3 Zrotation Yrotation Xrotation
										End Site
										{
											OFFSET 0.000000 0.000000 0.000000
										}
									}
								}
								JOINT RThumb
								{
									OFFSET 0.000000 0.000000 0.000000
									CHANNELS 3 Zrotation Yrotation Xrotation
									End Site
									{
										OFFSET 0.000000 0.000000 0.000000
									}
								}
							}
						}
					}
				}
			}
		}
	}
}
MOTION
Frames: 10
Frame Time: 0.008333
0.727661 18.357911 9.551795 -12.490409 1.129104 13.296428 7.179384 4.867334 -1.737941 -18.705351 -48.773019 23.645228 -3.921798 -2.458358 -3.527084 -14.652402 45.933471 -34.941989 0.525200 4.644300 12.896700 0.833295 -4.918367 0.347251 25.732644 27.773313 2.639810 3.778835 -0.076122 0.976092 8.886796 -27.868125 -5.711852 0.000000 0.032600 -0.089700 -2.677585 2.414643 7.165844 29.263098 8.540011 -23.408211 -12.947317 -1.943386 -11.762130 -18.926274 -11.870758 -12.100495 10.261765 -16.107451 30.657398 1.641100 -6.933200 9.580500 -10.644887 -6.146149 1.573389 -89.152508 10.196428 -9.071870 11.970945 -13.659830 -2.053321 -0.241408 1.458109 26.153338 16.585259 -7.564381 -2.746900 -7.125000 0.000000 0.000000 -6.799700 20.812400 3.967600 9.995741 8.071388 2.492520 80.104260 -10.482688 -21.565459 -12.359409 16.695324 -2.310195 0.583362 1.590421 49.477265 12.914744 -20.523532 -5.227300 7.125000 0.000000 0.000000 39.961600 -47.668300 -3.110200 
0.724395 18.351589 9.539889 -12.535524 0.981451 13.506447 7.154918 4.835179 -1.764333 -18.285174 -48.748474 23.220260 -3.914785 -2.448582 -3.526274 -14.677039 45.952947 -34.920948 0.529100 4.661300 12.945100 0.833436 -4.892237 0.290444 25.674909 27.891971 2.302318 3.765655 -0.158490 1.140863 8.837915 -27.744539 -5.545775 -0.000700 -0.172700 0.474500 -2.650101 2.499242 7.325163 29.120091 8.677519 -23.780498 -12.881738 -1.904976 -11.778493 -18.781653 -11.841904 -12.013059 10.082525 -16.046097 30.561403 1.601000 -6.923200 9.547100 -10.621237 -6.155640 1.603847 -89.169319 10.176904 -9.263709 11.943459 -13.622287 -2.047908 -0.225796 1.479580 26.343421 16.626907 -7.714551 -2.807800 -7.125000 0.000000 0.000000 -6.767900 20.629500 3.976900 9.981356 8.085968 2.525450 80.114059 -10.424327 -21.726096 -12.292746 16.601628 -2.287593 0.593629 1.582734 49.671129 12.891010 -20.558297 -5.223000 7.125000 0.000000 0.000000 39.959200 -47.701300 -3.147700 
0.721339 18.346321 9.527982 -12.500472 0.825079 13.732579 7.127460 4.805459 -1.791974 -17.943692 -48.709116 22.755395 -3.908026 -2.432163 -3.502611 -14.715096 45.993440 -34.894874 0.527400 4.654100 12.924500 0.839130 -4.857575 0.232395 25.500130 28.017597 1.931256 3.753527 -0.240635 1.301353 8.804695 -27.650862 -5.395831 -0.002800 -0.344500 0.946500 -2.733779 2.569949 7.419100 28.986900 8.793388 -24.115496 -12.770604 -1.862097 -11.755695 -18.675662 -11.825618 -11.928373 9.937915 -16.005262 30.459895 1.570000 -6.921100 9.515900 -10.600261 -6.170507 1.628065 -89.217485 10.160737 -9.371779 11.944293 -13.613969 -2.049147 -0.212879 1.490820 26.455596 16.632526 -7.812767 -2.843000 -7.125000 0.000000 0.000000 -6.765500 20.512600 3.993400 9.969284 8.097533 2.553355 80.107830 -10.388630 -21.735111 -12.264077 16.560523 -2.278887 0.600826 1.577553 49.749814 12.855758 -20.606176 -5.217600 7.125000 0.000000 0.000000 39.957200 -47.747000 -3.199900 
0.718916 18.341579 9.516497 -12.369155 0.691488 14.005536 7.082523 4.776532 -1.826604 -17.683730 -48.730755 22.252709 -3.903484 -2.403596 -3.449208 -14.677247 45.960125 -34.987708 0.539000 4.703800 13.065600 0.842189 -4.812899 0.161861 25.194718 28.169208 1.536253 3.744721 -0.310394 1.423709 8.809990 -27.649827 -5.288593 -0.000200 -0.086000 0.236300 -2.873722 2.614677 7.455354 28.752277 8.878926 -24.506576 -12.612837 -1.812616 -11.675097 -18.721684 -11.833582 -11.840168 10.003958 -16.041697 30.433305 1.595800 -6.937100 9.524900 -10.566230 -6.190036 1.655645 -89.256249 10.166822 -9.304784 11.967776 -13.627702 -2.055157 -0.209537 1.491223 26.370453 16.618153 -7.849463 -2.852100 -7.125000 0.000000 0.000000 -6.778800 20.472200 4.007500 9.987904 8.106951 2.580937 80.125657 -10.367621 -21.819432 -12.283128 16.575972 -2.283715 0.606380 1.567604 49.936803 12.755264 -20.607033 -5.174700 7.125000 0.000000 0.000000 39.868000 -47.759800 -3.204700 
0.712173 18.339577 9.516181 -12.032430 0.646821 14.583860 6.975205 4.753474 -1.909418 -17.377195 -49.028188 21.496765 -3.888963 -2.350193 -3.411192 -14.619911 45.942228 -35.179177 0.561000 4.797700 13.332400 0.822102 -4.722635 0.003461 24.628299 28.563266 1.063142 3.746658 -0.336869 1.418244 8.927272 -27.921341 -5.422202 -0.000400 -0.122700 0.337000 -3.046649 2.582192 7.210931 27.928875 8.929101 -25.413646 -12.292992 -1.704889 -11.200513 -18.700625 -11.888510 -11.669142 10.217476 -16.215088 30.452797 1.629300 -6.996700 9.550200 -10.492946 -6.246713 1.728530 -89.096628 10.271716 -8.400911 12.003644 -13.637834 -2.066858 -0.253937 1.502255 25.526800 16.851048 -7.895915 -2.912800 -7.125000 0.000000 0.000000 -6.592400 20.405900 3.905700 10.115517 8.111441 2.631454 80.178373 -10.293269 -22.117662 -12.231250 16.476356 -2.265094 0.625111 1.561002 49.939953 12.688970 -20.768031 -5.179800 7.125000 0.000000 0.000000 39.911900 -47.910400 -3.381400 
0.698686 18.335679 9.505012 -11.280469 0.272436 15.520955 6.768350 4.699459 -2.047449 -17.064008 -49.405809 20.241798 -3.875178 -2.260146 -3.307570 -14.451217 45.874500 -35.698782 0.625600 5.061300 14.083400 0.765405 -4.561001 -0.277826 23.390096 29.220681 0.122529 3.736739 -0.436291 1.537882 9.060633 -28.173680 -5.438088 -0.010100 -0.650300 1.786900 -3.540087 2.621436 7.066578 26.297312 9.033762 -27.032962 -11.564418 -1.454823 -10.549255 -18.388898 -11.946995 -11.401009 10.286136 -16.416623 30.449424 1.604100 -7.079500 9.547800 -10.352858 -6.325550 1.859336 -88.824898 10.484074 -6.554768 12.132978 -13.728657 -2.094889 -0.381656 1.458327 23.868410 17.225194 -7.395581 -2.805300 -7.125000 0.000000 0.000000 -6.283500 20.973200 3.639700 10.342734 8.102370 2.724178 80.259829 -10.222212 -22.433121 -12.100322 16.269724 -2.225326 0.652510 1.560861 49.626370 12.658978 -21.086661 -5.233400 7.125000 0.000000 0.000000 40.092700 -48.195700 -3.729200 
0.694050 18.339472 9.507014 -10.900633 0.097336 15.692596 6.700056 4.700195 -2.083854 -17.399178 -49.551984 20.189904 -3.878520 -2.233602 -3.267579 -14.415752 45.925357 -35.949164 0.640200 5.118800 14.247600 0.733643 -4.521994 -0.348223 22.890822 29.390659 -0.004840 3.737874 -0.436821 1.515933 9.114352 -28.261820 -5.469928 -0.020300 -0.920300 2.529500 -3.831870 2.618977 7.055126 25.683048 9.001645 -27.448525 -11.253830 -1.358289 -10.348496 -18.191565 -11.974968 -11.334695 10.195991 -16.482674 30.476823 1.555300 -7.116400 9.527700 -10.313568 -6.348300 1.889845 -88.718189 10.569157 -5.377001 12.288010 -13.879254 -2.118452 -0.516907 1.335448 22.839937 17.334064 -6.201037 -2.391800 -7.125000 0.000000 0.000000 -6.181400 22.369600 3.382900 10.440981 8.085021 2.744371 80.305247 -10.211008 -22.461412 -12.061270 16.208646 -2.212138 0.664347 1.554707 49.478261 12.508610 -21.240360 -5.201200 7.125000 0.000000 0.000000 40.063200 -48.350200 -3.901800 
0.693944 18.338840 9.507857 -10.748950 0.093881 15.833372 6.585740 4.639141 -2.177892 -17.415051 -49.561081 20.149018 -3.871363 -2.210811 -3.283504 -14.478432 46.016957 -35.886079 0.617700 5.029900 13.993900 0.599305 -4.523968 -0.460151 22.858705 29.347836 -0.062256 3.738850 -0.442856 1.510178 9.108285 -28.258151 -5.421656 -0.018500 -0.878500 2.414700 -3.295230 2.710836 7.785635 24.313766 9.039634 -28.796918 -11.059759 -1.255124 -10.554065 -17.988676 -11.921414 -10.850633 10.034331 -16.536775 30.676643 1.520800 -7.164700 9.527000 -10.118039 -6.289306 1.989841 -88.634781 11.125809 -5.049965 12.317832 -13.926883 -2.119503 -0.570091 1.272800 22.733726 17.335673 -5.594745 -2.170400 -7.125000 0.000000 0.000000 -6.176100 23.083100 3.278700 10.571653 8.020009 2.775474 80.680203 -10.866845 -22.460214 -12.142002 16.313330 -2.236750 0.663403 1.558157 49.396013 12.431337 -21.396821 -5.204300 7.125000 0.000000 0.000000 40.105900 -48.488600 -4.065300 
0.693944 18.338945 9.508068 -10.892189 0.112545 15.724650 6.697739 4.699408 -2.091912 -17.419471 -49.609008 20.220875 -3.879039 -2.240025 -3.290994 -14.422538 45.957535 -36.010040 0.626200 5.063800 14.090700 0.731190 -4.514472 -0.355471 22.862364 29.321255 -0.068410 3.736127 -0.436320 1.504413 9.109737 -28.260536 -5.359358 -0.016900 -0.839400 2.306900 -3.834457 2.590380 7.064892 25.672678 8.974223 -27.481373 -11.232249 -1.373086 -10.334516 -17.919508 -11.965242 -11.316914 9.750754 -16.380049 30.383541 1.433300 -7.111400 9.456700 -10.335245 -6.363973 1.895468 -88.714022 10.429671 -5.571009 12.286248 -13.865927 -2.108020 -0.545251 1.302899 22.970210 17.328728 -5.775534 -2.239200 -7.125000 0.000000 0.000000 -6.182100 22.859200 3.313700 10.418444 8.088550 2.744144 80.377877 -10.192723 -22.241798 -12.115626 16.271726 -2.230775 0.690036 1.550784 49.600404 12.442278 -21.695287 -5.268400 7.125000 0.000000 0.000000 40.309800 -48.739000 -4.380300 
0.693733 18.339788 9.508595 -10.906004 0.103228 15.709724 6.705692 4.701413 -2.088190 -17.424089 -49.592922 20.242706 -3.880575 -2.244251 -3.296085 -14.407096 45.938518 -36.024916 0.631800 5.085800 14.153400 0.738099 -4.520495 -0.348999 22.884157 29.346356 -0.022815 3.738134 -0.424458 1.477468 9.115631 -28.276519 -5.400391 -0.018600 -0.880400 2.419800 -3.863946 2.587526 7.074883 25.754361 8.973757 -27.428653 -11.231318 -1.381877 -10.352843 -17.763330 -11.976294 -11.324666 9.445993 -16.326305 30.310081 1.350800 -7.117300 9.411900 -10.352172 -6.364835 1.889734 -88.727752 10.407348 -5.571935 12.294728 -13.878241 -2.114305 -0.523114 1.317807 22.870351 17.275004 -6.028447 -2.320700 -7.125000 0.000000 0.000000 -6.228300 22.572800 3.379800 10.388834 8.087409 2.739788 80.388521 -10.185618 -22.019611 -12.137099 16.299365 -2.238853 0.708025 1.545396 49.500923 12.288695 -22.042096 -5.273100 7.125000 0.000000 0.000000 40.412000 -49.051900 -4.753500 
